<?xml version="1.0" encoding="UTF-8"?>
<svg id="Layer_1" xmlns="http://www.w3.org/2000/svg" viewBox="0 0 350 100">
  <defs>
    <style>
      .cls-1 {
        fill: #fff;
      }
    </style>
  </defs>
  <polygon class="cls-1" points="111.88 31.72 107.3 31.72 107.3 67.71 130.13 67.71 130.13 63.23 111.88 63.23 111.88 31.72"/>
  <polygon class="cls-1" points="304.71 44.63 301.66 41.98 292.9 52.05 284.22 42.06 284.14 41.98 281.1 44.63 290.23 55.13 281.17 65.55 281.1 65.63 284.14 68.28 292.9 58.21 301.58 68.2 301.66 68.28 304.71 65.63 295.58 55.13 304.63 44.72 304.71 44.63"/>
  <polygon class="cls-1" points="244.89 57.59 220.34 31.72 219.44 31.72 219.44 67.71 224.02 67.71 224.02 41.83 248.56 67.71 249.47 67.71 249.47 31.72 244.89 31.72 244.89 57.59"/>
  <rect class="cls-1" x="309.29" y="42.56" width="4.33" height="25.15"/>
  <rect class="cls-1" x="309.09" y="31.72" width="4.73" height="4.05"/>
  <path class="cls-1" d="M267.46,42.15c-7.04,0-12.63,5.68-12.63,12.98s5.49,12.98,12.93,12.98c4.38,0,7.95-1.81,10.11-4.07l-.02-.03-3.08-2.68c-1.62,1.47-4.05,2.7-7.01,2.7-4.58,0-8.05-3.37-8.45-7.85h20.42c-.1-8.96-5.23-14.03-12.27-14.03ZM259.52,52.41c.9-3.82,4.02-6.29,7.69-6.29,3.82-.05,7.04,2.16,7.64,6.29h-15.34Z"/>
  <path class="cls-1" d="M329.54,53.37l-2.15-.76c-3.03-1.06-3.82-2.26-3.82-3.82,0-1.76,1.73-2.77,3.71-2.77,1.84,0,3.14.75,4.24,1.96l2.93-2.55c-1.83-2.2-4.28-3.29-7.17-3.29-4.76,0-8.15,2.92-8.15,6.69,0,3.01,1.62,5.78,6.22,7.44l2.04.75c3.09,1.06,4.45,2.11,4.45,4.02s-2.09,3.17-4.66,3.17c-2.76,0-4.53-1.28-6.17-3.17l-3.09,2.69c2.26,2.74,5.47,4.35,9.16,4.35,5.7,0,9.25-3.17,9.25-7.19,0-3.72-2.35-5.98-6.8-7.54Z"/>
  <polygon class="cls-1" points="181.77 44.63 178.72 41.98 169.96 52.05 161.28 42.06 161.2 41.98 158.15 44.63 167.28 55.13 158.23 65.55 158.15 65.63 161.2 68.28 169.96 58.21 178.64 68.2 178.72 68.28 181.77 65.63 172.64 55.13 181.69 44.72 181.77 44.63"/>
  <rect class="cls-1" x="186.35" y="42.56" width="4.33" height="25.15"/>
  <rect class="cls-1" x="186.15" y="31.72" width="4.73" height="4.05"/>
  <path class="cls-1" d="M144.52,42.15c-7.04,0-12.63,5.68-12.63,12.98s5.49,12.98,12.93,12.98c4.38,0,7.95-1.81,10.11-4.07l-.02-.03-3.08-2.68c-1.62,1.47-4.05,2.7-7.01,2.7-4.58,0-8.05-3.37-8.45-7.85h20.42c-.1-8.96-5.23-14.03-12.27-14.03ZM136.58,52.41c.9-3.82,4.02-6.29,7.69-6.29,3.82-.05,7.04,2.16,7.64,6.29h-15.34Z"/>
  <path class="cls-1" d="M206.59,53.37l-2.14-.76c-3.04-1.06-3.82-2.26-3.82-3.82,0-1.76,1.73-2.77,3.71-2.77,1.84,0,3.14.75,4.24,1.96l2.93-2.55c-1.83-2.2-4.28-3.29-7.17-3.29-4.76,0-8.15,2.92-8.15,6.69,0,3.01,1.62,5.78,6.22,7.44l2.04.75c3.08,1.06,4.44,2.11,4.44,4.02s-2.09,3.17-4.66,3.17c-2.76,0-4.53-1.28-6.17-3.17l-3.09,2.69c2.26,2.74,5.47,4.35,9.16,4.35,5.7,0,9.25-3.17,9.25-7.19,0-3.72-2.35-5.98-6.8-7.54Z"/>
  <path class="cls-1" d="M339.92,35.76c-1.85,0-3.35,1.51-3.35,3.36s1.47,3.36,3.35,3.36,3.33-1.48,3.33-3.36-1.46-3.36-3.33-3.36ZM339.92,41.94c-1.56,0-2.78-1.24-2.78-2.82s1.24-2.82,2.78-2.82,2.78,1.27,2.78,2.82-1.21,2.82-2.78,2.82Z"/>
  <path class="cls-1" d="M341.32,38.25c0-.68-.49-1.08-1.35-1.08h-1.33v3.77h.62v-1.57h.66l.86,1.57h.67l-.91-1.66c.51-.13.77-.48.77-1.04ZM339.26,38.83v-1.09h.66c.54,0,.78.16.78.53,0,.39-.23.56-.77.56h-.68Z"/>
  <path class="cls-1" d="M85.56,24.99c-1.85,0-3.35,1.51-3.35,3.36s1.47,3.36,3.35,3.36,3.33-1.48,3.33-3.36-1.46-3.36-3.33-3.36ZM85.56,31.18c-1.56,0-2.78-1.24-2.78-2.82s1.24-2.82,2.78-2.82,2.78,1.27,2.78,2.82-1.21,2.82-2.78,2.82Z"/>
  <path class="cls-1" d="M86.96,27.49c0-.68-.49-1.08-1.35-1.08h-1.33v3.77h.62v-1.57h.66l.86,1.57h.67l-.91-1.66c.51-.13.77-.48.77-1.04ZM84.9,28.07v-1.09h.66c.54,0,.78.16.78.53,0,.39-.23.56-.76.56h-.68Z"/>
  <path class="cls-1" d="M20.87,46.07c3.99-7.95,10.55-14.34,18.28-18.06.91-.43,1.82-.83,2.75-1.19.09-.03.05-.16-.04-.14C14.34,31.31,2.52,65.53,20.91,80.17c.07.05.16-.03.11-.1-2.67-3.66-8.97-16.29-.15-34.01Z"/>
  <path class="cls-1" d="M27.19,68.88c-.72-4.51-.71-9.1,0-13.53,1.44-8.88,5.73-17.01,11.9-23.04,1.14-1.13,2.36-2.17,3.63-3.14.07-.05,0-.16-.08-.13-14.39,6.43-22.7,22.48-21.63,37.1.58,6.68,3.21,18.99,16.02,21.42.08.02.13-.09.06-.14-5.27-3.62-8.98-12.1-9.91-18.55Z"/>
  <path class="cls-1" d="M9.41,35.91c6.43-9.09,19.64-15.22,32.55-13.63.09.01.12-.12.03-.15-9.85-2.88-20.09-.94-26.35,4.11-2.68,2.17-4.77,5.91-6.35,9.59-.04.08.08.15.13.08Z"/>
  <path class="cls-1" d="M40.85,12.59c-7.22.66-14.95,3.64-20.71,8.52-.07.06,0,.17.09.13,4.93-2.82,11.72-2.75,15.72-2.29,2.11.25,4.19.69,6.22,1.32,2.02.63,3.97,1.44,5.84,2.42.96.51,1.91,1.07,2.82,1.67,3.4-1.51,6.99-2.52,10.6-3.03h0c.25-.03.52.1.61.35.11.32-.09.65-.4.71-1.94.41-3.85.97-5.71,1.67-.08.03-.06.15.03.15,2.63,0,5.25.29,7.8.83h.01c.23.05.41.23.44.46.04.38-.28.66-.61.61-2.24-.34-4.51-.47-6.77-.4-.09,0-.11.13-.02.15,1.06.33,2.1.7,3.12,1.11,1.92.79,3.77,1.73,5.53,2.81l.02.02c.17.1.28.29.25.48-.05.43-.48.61-.79.43-1.75-.97-3.58-1.8-5.47-2.47-.79-.28-1.59-.53-2.4-.75-.09-.03-.14.1-.06.14,1.32.84,2.59,1.75,3.78,2.75,1.59,1.34,3.06,2.8,4.4,4.38v.02c.14.15.18.36.1.55-.18.39-.65.43-.89.15-1.35-1.48-2.82-2.84-4.4-4.07-.93-.73-1.91-1.4-2.91-2.02-.08-.05-.16.05-.1.12.29.3.57.61.84.92,1.38,1.57,2.61,3.25,3.68,5.03,1.06,1.78,1.97,3.66,2.69,5.6v.02c.08.18.04.4-.1.54-.3.31-.76.18-.9-.16-.74-1.85-1.66-3.64-2.73-5.34-1.07-1.69-2.3-3.28-3.66-4.75-1.36-1.47-2.85-2.81-4.45-4.01-.45-.34-1.14-.81-1.41-.99-31.28,17.44-20.43,63.25,2.15,60.87,17.93-4.25,30.53-21.07,28.98-39.96-1.7-20.8-20.45-36.56-41.23-34.67Z"/>
  <path class="cls-1" d="M14.15,41.54c7.21-11.44,19.79-16.36,27.49-17.1.09,0,.09-.14,0-.15-3.18-.28-6.13-.06-9.98.74-3.9.89-7.66,2.43-11.02,4.61-3.37,2.16-6.34,4.93-8.75,8.12-.03.03-.05.06-.07.1-4.65,6.22-6.14,14.22-4.3,21.77.21.86.8,2.65,1.19,3.79.03.08.16.05.15-.03-.96-8.93,1.64-16.06,5.29-21.84Z"/>
</svg>